# xmcd
#
# Track frame offsets:
#	182
#	11832
#	26137
#	38742
#	51927
#	63610
#	73937
#	88857
#	101392
#	113757
#	127160
#	141210
#	154935
#	169147
#	183680
#	195890
#	207952
#	219847
#	234600
#	248987
#	263077
#	276690
#	291342
#	304557
#
# Disc length: 4230 seconds
#
# Revision: 2
# Processed by: cddbd v1.5.2PL0 Copyright (c) Steve Scherf et al.
# Submitted via: SynApp - FreeCDDB Version: 2.4
#
DISCID=74108418
DTITLE=Waters, Muddy - Rollin' Stone - Volume 1
DYEAR=1889
DGENRE=Blues
TTITLE0=Gypsy Woman
TTITLE1=I Feel Like Going Home
TTITLE2=Train Fare Home
TTITLE3=Down South Blues
TTITLE4=Sittin' Here And Drinkin' (Whiskey Blues)
TTITLE5=Mean Red Spider
TTITLE6=Streamline Woman
TTITLE7=Little Geneva
TTITLE8=Canary Bird
TTITLE9=Rollin' And Tumblin'
TTITLE10=You're Gonna Need My Help
TTITLE11=Sad Letter Blues
TTITLE12=Early Morning Blues
TTITLE13=Too Young To Know
TTITLE14=Howling Wolf
TTITLE15=Flood
TTITLE16=My Life Is Ruined
TTITLE17=Baby Please Don't Go
TTITLE18=Blow Wind Blow
TTITLE19=Smokestack Lightnin'
TTITLE20=Young Fashioned Ways
TTITLE21=Just To Be With You
TTITLE22=Don't Go No Further
TTITLE23=I Live The Life I Love
EXTD=
EXTT0=
EXTT1=
EXTT2=
EXTT3=
EXTT4=
EXTT5=
EXTT6=
EXTT7=
EXTT8=
EXTT9=
EXTT10=
EXTT11=
EXTT12=
EXTT13=
EXTT14=
EXTT15=
EXTT16=
EXTT17=
EXTT18=
EXTT19=
EXTT20=
EXTT21=
EXTT22=
EXTT23=
PLAYORDER=
